<?xml version="1.0" standalone="no"?>
<!DOCTYPE svg PUBLIC "-//W3C//DTD SVG 20010904//EN"
 "http://www.w3.org/TR/2001/REC-SVG-20010904/DTD/svg10.dtd">
<svg version="1.0" xmlns="http://www.w3.org/2000/svg"
 width="512.000000pt" height="512.000000pt" viewBox="0 0 512.000000 512.000000"
 preserveAspectRatio="xMidYMid meet">

<g transform="translate(0.000000,512.000000) scale(0.100000,-0.100000)"
fill="#000000" stroke="none">
<path d="M3243 4740 c-125 -18 -257 -114 -316 -232 -139 -276 64 -609 373
-610 175 -1 317 90 393 250 30 62 32 75 32 172 0 97 -2 110 -32 172 -84 177
-260 274 -450 248z"/>
<path d="M2470 3989 c-109 -21 -136 -43 -496 -403 -229 -229 -350 -357 -368
-390 -68 -125 -74 -260 -18 -380 18 -37 45 -85 62 -106 17 -21 181 -172 365
-336 l335 -297 0 -534 0 -533 210 0 210 0 0 672 0 673 -232 232 -231 231 249
256 249 255 130 -128 c210 -207 351 -300 579 -381 133 -48 368 -90 504 -90
l22 0 0 215 0 215 -54 0 c-130 0 -341 55 -466 122 -128 68 -187 118 -458 382
-144 140 -281 266 -305 280 -82 48 -186 65 -287 45z"/>
<path d="M995 2503 c-150 -13 -273 -47 -395 -107 -104 -52 -176 -102 -263
-185 -177 -169 -284 -369 -322 -606 -77 -474 182 -944 630 -1142 268 -118 592
-115 862 7 99 45 227 135 308 215 206 206 315 467 315 755 0 568 -442 1032
-1010 1062 -47 3 -103 3 -125 1z m285 -350 c317 -90 530 -377 530 -713 0 -338
-211 -620 -535 -715 -119 -35 -280 -38 -398 -6 -258 68 -462 271 -533 531 -25
90 -25 290 0 380 112 410 525 640 936 523z"/>
<path d="M3940 2499 c-351 -35 -682 -266 -838 -585 -79 -160 -112 -301 -112
-474 0 -476 314 -891 775 -1025 605 -175 1238 231 1340 860 19 114 19 216 0
330 -91 560 -601 951 -1165 894z m308 -340 c250 -63 457 -271 528 -529 25 -90
25 -290 0 -380 -71 -260 -275 -463 -533 -531 -118 -32 -279 -29 -398 6 -324
95 -535 377 -535 715 0 327 202 609 507 707 143 46 283 50 431 12z"/>
</g>
</svg>
