<?xml version="1.0" standalone="no"?>
<!DOCTYPE svg PUBLIC "-//W3C//DTD SVG 20010904//EN"
 "http://www.w3.org/TR/2001/REC-SVG-20010904/DTD/svg10.dtd">
<svg version="1.0" xmlns="http://www.w3.org/2000/svg"
 width="512.000000pt" height="512.000000pt" viewBox="0 0 512.000000 512.000000"
 preserveAspectRatio="xMidYMid meet">

<g transform="translate(0.000000,512.000000) scale(0.100000,-0.100000)"
fill="#000000" stroke="none">
<path d="M650 4883 c-109 -21 -252 -137 -303 -246 -125 -267 31 -577 321 -638
72 -15 172 -6 242 20 30 11 57 17 60 13 3 -4 30 -41 61 -82 116 -156 200 -316
264 -504 60 -178 67 -152 -90 -371 -75 -104 -142 -196 -149 -203 -11 -12 -38
2 -162 79 -82 51 -151 94 -153 95 -1 2 36 57 83 123 47 65 86 123 86 128 0 5
-52 47 -116 92 -113 81 -117 83 -134 65 -19 -21 -520 -722 -520 -729 0 -6 241
-178 244 -174 1 2 42 59 90 127 48 67 89 122 91 122 6 0 279 -172 292 -184 9
-8 -21 -56 -123 -200 l-134 -188 0 -248 0 -247 83 -6 c217 -17 419 -116 575
-282 148 -157 219 -321 248 -568 l5 -47 1049 0 1049 0 5 47 c29 245 100 410
245 565 127 136 306 238 471 268 36 7 73 15 83 19 14 5 -133 172 -734 834
l-752 827 -654 0 c-615 0 -653 1 -653 18 0 9 -18 71 -41 137 -73 219 -209 469
-350 642 l-59 73 16 56 c66 229 -69 485 -293 554 -62 19 -176 25 -243 13z
m2745 -2454 c330 -363 606 -669 614 -680 13 -19 8 -19 -232 -19 l-245 0 -273
300 -272 300 -214 0 -213 0 0 -150 0 -150 148 -1 147 0 95 -105 c52 -58 112
-126 133 -150 l39 -44 -536 0 -536 0 -150 300 -150 300 -351 0 c-207 0 -349 4
-347 9 2 5 122 176 268 380 l265 371 605 -1 605 0 600 -660z"/>
<path d="M485 1420 c-275 -56 -484 -312 -485 -596 0 -70 29 -193 60 -253 l20
-41 -40 0 -40 0 0 -150 0 -150 2560 0 2560 0 0 150 0 150 -40 0 -40 0 20 41
c31 60 60 183 60 253 -1 321 -251 586 -570 603 -277 15 -521 -154 -605 -419
-43 -137 -33 -314 25 -428 11 -22 20 -42 20 -45 0 -3 -644 -5 -1431 -5 -1141
0 -1430 3 -1426 13 61 138 79 234 65 355 -28 249 -215 459 -459 517 -68 16
-188 18 -254 5z"/>
</g>
</svg>
