<?xml version="1.0" standalone="no"?>
<!DOCTYPE svg PUBLIC "-//W3C//DTD SVG 20010904//EN"
 "http://www.w3.org/TR/2001/REC-SVG-20010904/DTD/svg10.dtd">
<svg version="1.0" xmlns="http://www.w3.org/2000/svg"
 width="512.000000pt" height="512.000000pt" viewBox="0 0 512.000000 512.000000"
 preserveAspectRatio="xMidYMid meet">

<g transform="translate(0.000000,512.000000) scale(0.100000,-0.100000)"
fill="#000000" stroke="none">
<path d="M1111 4910 c-132 -18 -290 -81 -392 -156 -25 -18 -78 -67 -116 -108
-335 -351 -295 -920 86 -1226 105 -84 232 -144 374 -174 l27 -6 0 -248 c0
-268 4 -286 54 -310 32 -16 80 -2 96 29 6 10 10 127 10 268 l0 250 -80 7 -80
7 -2 314 -3 314 -189 90 c-104 49 -195 97 -202 107 -36 47 2 122 61 122 16 0
96 -31 177 -70 82 -38 150 -70 153 -70 3 0 5 70 5 155 0 196 11 225 89 225 16
0 37 -10 49 -23 21 -22 22 -32 24 -310 l3 -287 147 70 c155 74 195 83 228 50
23 -23 27 -77 8 -103 -7 -9 -97 -57 -201 -106 l-187 -90 2 -198 3 -197 49 3
c201 12 426 134 561 304 204 256 248 581 118 876 -81 183 -257 354 -443 431
-129 53 -301 77 -429 60z"/>
<path d="M2210 4018 c0 -74 -32 -218 -69 -314 -17 -45 -60 -125 -95 -177 l-62
-96 115 -56 c150 -73 306 -166 362 -216 l44 -39 -60 -56 c-72 -67 -233 -191
-500 -385 -199 -145 -348 -250 -965 -684 -578 -406 -590 -416 -590 -505 0
-203 360 -502 1105 -917 285 -159 607 -324 640 -328 17 -2 628 -7 1358 -9
l1329 -6 29 29 29 29 0 285 c0 258 -2 285 -18 299 -9 9 -118 59 -242 111 -707
299 -1228 572 -1335 699 -21 25 -26 39 -22 66 8 47 63 141 162 277 82 112 95
135 76 135 -22 0 -193 124 -253 184 -88 87 -146 170 -202 287 -62 128 -87 227
-93 377 -11 240 47 439 184 629 28 40 49 74 45 77 -33 20 -943 356 -965 356
-4 0 -7 -24 -7 -52z m-193 -2223 c59 -18 96 -55 114 -115 7 -23 20 -42 31 -46
26 -8 115 20 260 82 256 109 348 112 447 12 66 -66 72 -127 17 -163 -37 -24
-77 -12 -115 36 -24 29 -39 39 -61 39 -32 0 -182 -51 -250 -85 -66 -33 -195
-74 -254 -81 -105 -13 -196 39 -218 123 -6 25 -18 47 -26 51 -23 8 -132 -24
-235 -69 -230 -102 -347 -122 -436 -76 -114 58 -121 217 -11 217 30 0 43 -6
59 -26 12 -15 21 -32 21 -39 0 -40 128 -9 326 79 84 37 209 74 255 75 14 1 48
-6 76 -14z m960 -880 c59 -18 96 -55 114 -115 7 -23 20 -42 31 -46 25 -8 140
28 257 81 125 56 224 86 286 87 136 3 269 -156 182 -217 -37 -26 -79 -19 -117
20 -22 23 -43 35 -61 35 -32 0 -183 -52 -249 -85 -66 -33 -195 -74 -254 -81
-104 -12 -196 39 -219 123 -8 30 -18 45 -32 49 -24 6 -187 -47 -265 -86 -92
-46 -218 -83 -290 -83 -51 -1 -75 4 -110 23 -112 63 -120 220 -10 220 30 0 43
-6 59 -26 12 -15 21 -32 21 -39 0 -40 128 -9 326 79 84 37 209 74 255 75 14 1
48 -6 76 -14z"/>
<path d="M3864 3888 c-282 -24 -541 -203 -669 -463 -60 -123 -76 -188 -82
-340 -4 -110 -2 -144 16 -218 75 -316 314 -557 629 -632 l72 -18 0 -334 c0
-195 4 -342 10 -352 16 -31 64 -45 96 -29 52 24 54 37 54 385 l0 322 38 6
c176 27 337 93 450 185 187 153 312 410 312 645 0 400 -278 748 -661 828 -94
20 -164 24 -265 15z m81 -484 c40 -16 45 -51 45 -338 l0 -275 146 70 c80 38
159 69 174 69 62 0 99 -73 62 -120 -12 -15 -91 -58 -201 -110 l-181 -84 0
-205 0 -204 -61 7 c-34 3 -70 6 -80 6 -18 0 -19 15 -19 313 l0 313 -187 88
c-192 90 -233 118 -233 162 0 35 42 74 79 74 16 0 96 -31 177 -70 81 -38 151
-70 155 -70 5 0 9 75 9 167 0 157 1 168 22 190 21 23 59 30 93 17z"/>
</g>
</svg>
