<?xml version="1.0" standalone="no"?>
<!DOCTYPE svg PUBLIC "-//W3C//DTD SVG 20010904//EN"
 "http://www.w3.org/TR/2001/REC-SVG-20010904/DTD/svg10.dtd">
<svg version="1.0" xmlns="http://www.w3.org/2000/svg"
 width="512.000000pt" height="512.000000pt" viewBox="0 0 512.000000 512.000000"
 preserveAspectRatio="xMidYMid meet">

<g transform="translate(0.000000,512.000000) scale(0.100000,-0.100000)"
fill="#000000" stroke="none">
<path d="M3839 5098 c-62 -36 -79 -79 -79 -204 0 -135 18 -182 84 -213 53 -26
86 -26 136 -1 63 32 80 76 80 212 0 133 -14 170 -76 205 -49 28 -98 29 -145 1z"/>
<path d="M3093 4789 c-30 -15 -48 -33 -62 -63 -25 -50 -26 -75 -6 -122 18 -45
136 -167 180 -188 101 -48 215 22 215 132 0 58 -16 85 -97 163 -105 103 -150
118 -230 78z"/>
<path d="M4590 4791 c-44 -24 -166 -150 -180 -185 -47 -124 72 -243 196 -196
37 14 162 137 185 182 24 47 24 82 -1 136 -33 72 -127 102 -200 63z"/>
<path d="M3750 4387 c-210 -75 -340 -257 -340 -477 0 -91 17 -158 61 -239 152
-286 550 -350 783 -126 106 102 155 215 156 361 0 181 -76 326 -221 423 -124
83 -302 106 -439 58z m243 -290 c45 -19 105 -89 113 -132 3 -20 4 -59 2 -86
-9 -93 -97 -169 -196 -169 -115 0 -202 86 -202 200 0 81 40 146 115 184 37 19
125 21 168 3z"/>
<path d="M1060 4041 c-47 -25 -80 -75 -80 -122 0 -21 16 -97 35 -168 19 -71
35 -133 35 -138 0 -5 -36 -24 -80 -42 -144 -60 -312 -168 -435 -280 -395 -360
-589 -884 -521 -1402 16 -117 40 -218 62 -261 32 -61 128 -87 194 -53 16 8 54
48 84 89 91 121 202 191 348 222 114 24 220 10 352 -48 114 -50 163 -34 246
81 43 59 154 161 164 150 5 -6 438 -1628 440 -1647 1 -13 -21 -21 -109 -39
-604 -125 -1076 -105 -1497 61 -64 25 -133 46 -153 46 -130 0 -192 -162 -97
-253 59 -56 357 -158 576 -197 368 -65 716 -52 1206 46 207 41 384 85 810 200
791 215 1149 271 1485 234 271 -30 466 -101 684 -247 103 -70 118 -77 162 -77
84 0 144 62 144 147 0 72 -25 102 -152 187 -373 250 -781 339 -1299 285 -280
-30 -518 -81 -1085 -235 -205 -55 -373 -99 -375 -97 -5 5 -444 1644 -444 1658
0 26 145 -7 264 -61 35 -16 58 -20 85 -15 52 9 73 26 134 107 166 220 433 287
690 174 124 -56 229 -12 244 102 7 53 -62 257 -133 391 -80 151 -145 241 -263
364 -256 265 -545 419 -911 483 -107 19 -392 23 -473 6 -57 -11 -50 -23 -98
159 -36 132 -59 172 -116 195 -44 19 -82 17 -123 -5z m815 -663 c361 -71 695
-310 880 -630 l27 -48 -95 0 c-158 0 -310 -42 -435 -120 -35 -22 -66 -40 -70
-40 -4 0 -20 37 -36 83 -90 259 -234 491 -425 690 l-94 97 74 -6 c41 -3 119
-15 174 -26z m-466 -180 c200 -172 347 -388 445 -650 20 -53 36 -98 36 -100 0
-2 -62 -3 -137 -3 -102 0 -156 -5 -208 -19 -87 -23 -221 -84 -287 -132 -28
-19 -52 -33 -55 -30 -3 2 -14 55 -24 118 -14 79 -20 160 -20 268 0 212 30 373
102 561 36 92 26 93 148 -13z m-498 -105 c-16 -66 -35 -163 -41 -216 -22 -172
-2 -544 35 -667 4 -13 -13 -15 -113 -17 -83 -1 -140 -7 -197 -22 -82 -22 -205
-75 -255 -111 -15 -11 -31 -20 -36 -20 -15 0 6 237 30 341 69 299 243 573 476
748 83 63 124 90 128 86 1 -1 -11 -56 -27 -122z"/>
<path d="M2780 4038 c-54 -37 -74 -72 -74 -128 0 -54 18 -87 68 -124 23 -18
45 -21 149 -24 135 -3 171 7 212 62 28 39 28 133 -1 173 -37 51 -76 63 -205
63 -104 0 -120 -2 -149 -22z"/>
<path d="M4738 4039 c-41 -21 -78 -81 -78 -125 0 -51 38 -111 84 -133 55 -27
223 -30 286 -5 48 19 90 82 90 135 0 47 -38 108 -80 130 -51 28 -249 27 -302
-2z"/>
<path d="M3184 3391 c-69 -50 -151 -145 -165 -189 -16 -56 0 -110 46 -151 79
-69 155 -50 269 69 41 44 78 91 82 105 10 40 -1 110 -22 138 -46 63 -145 76
-210 28z"/>
<path d="M4472 3400 c-66 -40 -90 -124 -56 -195 21 -44 143 -162 188 -180 47
-20 72 -19 122 6 71 34 103 123 68 192 -20 39 -139 163 -176 183 -39 20 -107
18 -146 -6z"/>
<path d="M3838 3140 c-61 -33 -78 -79 -78 -206 0 -135 18 -182 84 -213 51 -25
73 -26 126 -5 29 12 48 29 65 59 23 38 25 53 25 154 0 127 -12 167 -63 203
-42 30 -112 34 -159 8z"/>
</g>
</svg>
